<?xml version="1.0" standalone="no"?>
<svg xmlns="http://www.w3.org/2000/svg" height="1700pt" preserveAspectRatio="xMidYMid meet" viewBox="0 0 1920 1700" width="1920pt">
  <path d="m4289 16983c-36-22-59-64-59-108s9-62 70-140c82-106 144-204 305-485 87-151 269-466 405-700s359-618 497-855c627-1080 1072-1847 1573-2709 172-296 313-545 314-553 1-13-31-16-224-18-245-2-342-15-582-76-690-174-1455-599-2293-1274-375-302-637-545-1060-985-572-594-862-861-1350-1240-537-417-884-717-1245-1079-236-236-391-409-528-590-106-138-106-145-5-52 508 465 1158 806 1834 961 186 43 275 57 479 80 716 80 1436 243 1997 451 72 27 133 49 135 49s-6-60-18-132c-51-302-84-639-104-1053-12-257-12-916 0-1155 33-630 19-943-65-1525-128-878-451-2078-855-3175-54-146-101-274-105-285s32 52 80 140c257 471 525 883 854 1310 485 631 992 1162 1646 1725 682 587 1176 1105 1605 1685 109 146 312 450 333 497 6 15 14 28 17 28s16-21 30-47c47-89 237-368 388-568 297-395 553-687 957-1090 481-482 737-703 1415-1225 1057-814 1998-1610 2879-2435 123-116 248-232 277-258s56-57 60-69c5-16 8-17 15-7 4 7 4 18-1 24-17 20-201 881-299 1395-186 978-299 1709-426 2750-30 250-71 559-91 685-171 1114-502 2213-913 3039l-96 193 225 6c582 16 1284 137 2050 353 107 31 384 118 615 194 584 193 854 269 1290 364 845 186 1779 278 2505 248 145-7 265-10 267-8 2 1-57 13-130 25-1123 193-2386 534-3257 878-525 207-876 387-1315 675-730 477-1551 913-2127 1128l-86 32 99 80c476 378 987 920 1456 1543 502 667 1276 1200 2078 1431 97 27 69 30-98 9-586-72-1404-307-2282-655-630-250-1004-363-1880-569-433-102-695-174-993-276-1162-394-2047-890-2592-1451-196-202-316-362-413-551-25-49-48-83-57-83-9 1-46 57-89 133-214 383-320 572-546 982-345 625-695 1255-1010 1820-147 264-300 539-340 610-39 72-184 328-320 570-462 818-612 1099-685 1275-27 65-43 90-69 107-41 27-104 30-142 6z" transform="matrix(.1 0 0 -.1 0 1700)" fill="#F35580" stroke="none" stroke-width="2" vector-effect="non-scaling-stroke"/>
</svg>
